<svg version="1.1" viewBox="0.0 0.0 600.0 371.0" fill="none" stroke="none" stroke-linecap="square" stroke-miterlimit="10" width="600" height="371" xmlns:xlink="http://www.w3.org/1999/xlink" xmlns="http://www.w3.org/2000/svg"><path fill="#ffffff" d="M0 0L600.0 0L600.0 371.0L0 371.0L0 0Z" fill-rule="nonzero"/><path stroke="#cccccc" stroke-width="1.0" stroke-linecap="butt" d="M170.5 61.5L170.5 300.5" fill-rule="nonzero"/><path stroke="#cccccc" stroke-width="1.0" stroke-linecap="butt" d="M272.5 61.5L272.5 300.5" fill-rule="nonzero"/><path stroke="#cccccc" stroke-width="1.0" stroke-linecap="butt" d="M375.5 61.5L375.5 300.5" fill-rule="nonzero"/><path stroke="#cccccc" stroke-width="1.0" stroke-linecap="butt" d="M478.5 61.5L478.5 300.5" fill-rule="nonzero"/><path stroke="#cccccc" stroke-width="1.0" stroke-linecap="butt" d="M581.5 61.5L581.5 300.5" fill-rule="nonzero"/><path stroke="#333333" stroke-width="1.0" stroke-linecap="butt" d="M77.5 300.5L581.5 300.5" fill-rule="nonzero"/><path stroke="#cccccc" stroke-width="1.0" stroke-linecap="butt" d="M77.5 252.5L581.5 252.5" fill-rule="nonzero"/><path stroke="#cccccc" stroke-width="1.0" stroke-linecap="butt" d="M77.5 205.5L581.5 205.5" fill-rule="nonzero"/><path stroke="#cccccc" stroke-width="1.0" stroke-linecap="butt" d="M77.5 157.5L581.5 157.5" fill-rule="nonzero"/><path stroke="#cccccc" stroke-width="1.0" stroke-linecap="butt" d="M77.5 109.5L581.5 109.5" fill-rule="nonzero"/><path stroke="#cccccc" stroke-width="1.0" stroke-linecap="butt" d="M77.5 61.5L581.5 61.5" fill-rule="nonzero"/><clipPath id="id_0"><path d="M77.55 61.916668L581.45 61.916668L581.45 300.45L77.55 300.45L77.55 61.916668Z" clip-rule="nonzero"/></clipPath><path stroke="#4285f4" stroke-width="2.0" stroke-linecap="butt" clip-path="url(#id_0)" d="M77.55 68.62995L87.83367 101.90582L98.11735 128.02856L108.401024 148.83727L118.68469 165.66054L128.96837 179.45444L139.25204 190.9155L149.53572 200.55319L159.81938 208.74728L170.10306 215.78355L180.38673 221.88046L190.67041 227.20644L200.95409 231.89313L211.23776 236.04504L221.52142 239.74565L231.8051 243.0627L242.08878 246.05057L252.37245 248.75505L262.65613 251.21338L272.9398 253.45683L283.22348 255.5117L293.50714 257.40033L303.7908 259.1415L314.0745 260.75162L324.35815 262.24454L334.64185 263.6324L344.9255 264.92572L355.2092 266.1336L365.49286 267.2641L375.77652 268.32434L386.0602 269.32053L396.34387 270.25827L406.62756 271.14236L416.91122 271.97733L427.1949 272.76703L437.47858 273.51495L447.76224 274.2244L458.04593 274.89816L468.3296 275.53876L478.61325 276.1487L488.89694 276.73L499.1806 277.28464L509.4643 277.81433L519.748 278.3208L530.0316 278.80548L540.3153 279.26968L550.599 279.71472L560.8826 280.14175L571.1663 280.55185L581.45 280.9459" fill-rule="nonzero"/><path fill="#000000" fill-opacity="0.0" clip-path="url(#id_0)" d="M80.55 68.62995C80.55 70.286804 79.206856 71.62995 77.55 71.62995C75.89314 71.62995 74.55 70.286804 74.55 68.62995C74.55 66.97309 75.89314 65.62995 77.55 65.62995C79.206856 65.62995 80.55 66.97309 80.55 68.62995Z" fill-rule="nonzero"/><path fill="#000000" fill-opacity="0.0" clip-path="url(#id_0)" d="M90.83367 101.90582C90.83367 103.56268 89.490524 104.90582 87.83367 104.90582C86.17682 104.90582 84.83367 103.56268 84.83367 101.90582C84.83367 100.24897 86.17682 98.90582 87.83367 98.90582C89.490524 98.90582 90.83367 100.24897 90.83367 101.90582Z" fill-rule="nonzero"/><path fill="#000000" fill-opacity="0.0" clip-path="url(#id_0)" d="M101.11735 128.02856C101.11735 129.68542 99.7742 131.02856 98.11735 131.02856C96.460495 131.02856 95.11735 129.68542 95.11735 128.02856C95.11735 126.37171 96.460495 125.028564 98.11735 125.028564C99.7742 125.028564 101.11735 126.37171 101.11735 128.02856Z" fill-rule="nonzero"/><path fill="#000000" fill-opacity="0.0" clip-path="url(#id_0)" d="M111.401024 148.83727C111.401024 150.49411 110.05788 151.83727 108.401024 151.83727C106.74416 151.83727 105.401024 150.49411 105.401024 148.83727C105.401024 147.1804 106.74416 145.83727 108.401024 145.83727C110.05788 145.83727 111.401024 147.1804 111.401024 148.83727Z" fill-rule="nonzero"/><path fill="#000000" fill-opacity="0.0" clip-path="url(#id_0)" d="M121.68469 165.66054C121.68469 167.3174 120.341545 168.66054 118.68469 168.66054C117.02784 168.66054 115.68469 167.3174 115.68469 165.66054C115.68469 164.00368 117.02784 162.66054 118.68469 162.66054C120.341545 162.66054 121.68469 164.00368 121.68469 165.66054Z" fill-rule="nonzero"/><path fill="#000000" fill-opacity="0.0" clip-path="url(#id_0)" d="M131.96837 179.45444C131.96837 181.1113 130.62523 182.45444 128.96837 182.45444C127.311516 182.45444 125.96837 181.1113 125.96837 179.45444C125.96837 177.79759 127.311516 176.45444 128.96837 176.45444C130.62523 176.45444 131.96837 177.79759 131.96837 179.45444Z" fill-rule="nonzero"/><path fill="#000000" fill-opacity="0.0" clip-path="url(#id_0)" d="M142.25204 190.9155C142.25204 192.57234 140.90889 193.9155 139.25204 193.9155C137.59518 193.9155 136.25204 192.57234 136.25204 190.9155C136.25204 189.25864 137.59518 187.9155 139.25204 187.9155C140.90889 187.9155 142.25204 189.25864 142.25204 190.9155Z" fill-rule="nonzero"/><path fill="#000000" fill-opacity="0.0" clip-path="url(#id_0)" d="M152.53572 200.55319C152.53572 202.21005 151.19257 203.55319 149.53572 203.55319C147.87886 203.55319 146.53572 202.21005 146.53572 200.55319C146.53572 198.89635 147.87886 197.55319 149.53572 197.55319C151.19257 197.55319 152.53572 198.89635 152.53572 200.55319Z" fill-rule="nonzero"/><path fill="#000000" fill-opacity="0.0" clip-path="url(#id_0)" d="M162.81938 208.74728C162.81938 210.40414 161.47624 211.74728 159.81938 211.74728C158.16254 211.74728 156.81938 210.40414 156.81938 208.74728C156.81938 207.09044 158.16254 205.74728 159.81938 205.74728C161.47624 205.74728 162.81938 207.09044 162.81938 208.74728Z" fill-rule="nonzero"/><path fill="#000000" fill-opacity="0.0" clip-path="url(#id_0)" d="M173.10306 215.78355C173.10306 217.4404 171.75992 218.78355 170.10306 218.78355C168.44621 218.78355 167.10306 217.4404 167.10306 215.78355C167.10306 214.1267 168.44621 212.78355 170.10306 212.78355C171.75992 212.78355 173.10306 214.1267 173.10306 215.78355Z" fill-rule="nonzero"/><path fill="#000000" fill-opacity="0.0" clip-path="url(#id_0)" d="M183.38673 221.88046C183.38673 223.53731 182.0436 224.88046 180.38673 224.88046C178.72987 224.88046 177.38673 223.53731 177.38673 221.88046C177.38673 220.2236 178.72987 218.88046 180.38673 218.88046C182.0436 218.88046 183.38673 220.2236 183.38673 221.88046Z" fill-rule="nonzero"/><path fill="#000000" fill-opacity="0.0" clip-path="url(#id_0)" d="M193.67041 227.20644C193.67041 228.86328 192.32726 230.20644 190.67041 230.20644C189.01355 230.20644 187.67041 228.86328 187.67041 227.20644C187.67041 225.54958 189.01355 224.20644 190.67041 224.20644C192.32726 224.20644 193.67041 225.54958 193.67041 227.20644Z" fill-rule="nonzero"/><path fill="#000000" fill-opacity="0.0" clip-path="url(#id_0)" d="M203.95409 231.89313C203.95409 233.54999 202.61093 234.89313 200.95409 234.89313C199.29723 234.89313 197.95409 233.54999 197.95409 231.89313C197.95409 230.23628 199.29723 228.89313 200.95409 228.89313C202.61093 228.89313 203.95409 230.23628 203.95409 231.89313Z" fill-rule="nonzero"/><path fill="#000000" fill-opacity="0.0" clip-path="url(#id_0)" d="M214.23776 236.04504C214.23776 237.7019 212.8946 239.04504 211.23776 239.04504C209.5809 239.04504 208.23776 237.7019 208.23776 236.04504C208.23776 234.3882 209.5809 233.04504 211.23776 233.04504C212.8946 233.04504 214.23776 234.3882 214.23776 236.04504Z" fill-rule="nonzero"/><path fill="#000000" fill-opacity="0.0" clip-path="url(#id_0)" d="M224.52142 239.74565C224.52142 241.40251 223.17828 242.74565 221.52142 242.74565C219.86458 242.74565 218.52142 241.40251 218.52142 239.74565C218.52142 238.08879 219.86458 236.74565 221.52142 236.74565C223.17828 236.74565 224.52142 238.08879 224.52142 239.74565Z" fill-rule="nonzero"/><path fill="#000000" fill-opacity="0.0" clip-path="url(#id_0)" d="M234.8051 243.0627C234.8051 244.71954 233.46196 246.0627 231.8051 246.0627C230.14825 246.0627 228.8051 244.71954 228.8051 243.0627C228.8051 241.40584 230.14825 240.0627 231.8051 240.0627C233.46196 240.0627 234.8051 241.40584 234.8051 243.0627Z" fill-rule="nonzero"/><path fill="#000000" fill-opacity="0.0" clip-path="url(#id_0)" d="M245.08878 246.05057C245.08878 247.70741 243.74564 249.05057 242.08878 249.05057C240.43192 249.05057 239.08878 247.70741 239.08878 246.05057C239.08878 244.3937 240.43192 243.05057 242.08878 243.05057C243.74564 243.05057 245.08878 244.3937 245.08878 246.05057Z" fill-rule="nonzero"/><path fill="#000000" fill-opacity="0.0" clip-path="url(#id_0)" d="M255.37245 248.75505C255.37245 250.41191 254.0293 251.75505 252.37245 251.75505C250.71559 251.75505 249.37245 250.41191 249.37245 248.75505C249.37245 247.0982 250.71559 245.75505 252.37245 245.75505C254.0293 245.75505 255.37245 247.0982 255.37245 248.75505Z" fill-rule="nonzero"/><path fill="#000000" fill-opacity="0.0" clip-path="url(#id_0)" d="M265.65613 251.21338C265.65613 252.87024 264.313 254.21338 262.65613 254.21338C260.99927 254.21338 259.65613 252.87024 259.65613 251.21338C259.65613 249.55653 260.99927 248.21338 262.65613 248.21338C264.313 248.21338 265.65613 249.55653 265.65613 251.21338Z" fill-rule="nonzero"/><path fill="#000000" fill-opacity="0.0" clip-path="url(#id_0)" d="M275.9398 253.45683C275.9398 255.1137 274.59665 256.45685 272.9398 256.45685C271.28293 256.45685 269.9398 255.1137 269.9398 253.45683C269.9398 251.79997 271.28293 250.45683 272.9398 250.45683C274.59665 250.45683 275.9398 251.79997 275.9398 253.45683Z" fill-rule="nonzero"/><path fill="#000000" fill-opacity="0.0" clip-path="url(#id_0)" d="M286.22348 255.5117C286.22348 257.16855 284.8803 258.51172 283.22348 258.51172C281.56662 258.51172 280.22348 257.16855 280.22348 255.5117C280.22348 253.85484 281.56662 252.5117 283.22348 252.5117C284.8803 252.5117 286.22348 253.85484 286.22348 255.5117Z" fill-rule="nonzero"/><path fill="#000000" fill-opacity="0.0" clip-path="url(#id_0)" d="M296.50714 257.40033C296.50714 259.05716 295.164 260.40033 293.50714 260.40033C291.85028 260.40033 290.50714 259.05716 290.50714 257.40033C290.50714 255.74345 291.85028 254.40031 293.50714 254.40031C295.164 254.40031 296.50714 255.74345 296.50714 257.40033Z" fill-rule="nonzero"/><path fill="#000000" fill-opacity="0.0" clip-path="url(#id_0)" d="M306.7908 259.1415C306.7908 260.79837 305.44766 262.1415 303.7908 262.1415C302.13397 262.1415 300.7908 260.79837 300.7908 259.1415C300.7908 257.48465 302.13397 256.1415 303.7908 256.1415C305.44766 256.1415 306.7908 257.48465 306.7908 259.1415Z" fill-rule="nonzero"/><path fill="#000000" fill-opacity="0.0" clip-path="url(#id_0)" d="M317.0745 260.75162C317.0745 262.40848 315.73135 263.75162 314.0745 263.75162C312.41763 263.75162 311.0745 262.40848 311.0745 260.75162C311.0745 259.09476 312.41763 257.75162 314.0745 257.75162C315.73135 257.75162 317.0745 259.09476 317.0745 260.75162Z" fill-rule="nonzero"/><path fill="#000000" fill-opacity="0.0" clip-path="url(#id_0)" d="M327.35815 262.24454C327.35815 263.9014 326.015 265.24454 324.35815 265.24454C322.7013 265.24454 321.35815 263.9014 321.35815 262.24454C321.35815 260.58768 322.7013 259.24454 324.35815 259.24454C326.015 259.24454 327.35815 260.58768 327.35815 262.24454Z" fill-rule="nonzero"/><path fill="#000000" fill-opacity="0.0" clip-path="url(#id_0)" d="M337.64185 263.6324C337.64185 265.28925 336.2987 266.6324 334.64185 266.6324C332.985 266.6324 331.64185 265.28925 331.64185 263.6324C331.64185 261.97552 332.985 260.6324 334.64185 260.6324C336.2987 260.6324 337.64185 261.97552 337.64185 263.6324Z" fill-rule="nonzero"/><path fill="#000000" fill-opacity="0.0" clip-path="url(#id_0)" d="M347.9255 264.92572C347.9255 266.58255 346.58237 267.92572 344.9255 267.92572C343.26865 267.92572 341.9255 266.58255 341.9255 264.92572C341.9255 263.26886 343.26865 261.92572 344.9255 261.92572C346.58237 261.92572 347.9255 263.26886 347.9255 264.92572Z" fill-rule="nonzero"/><path fill="#000000" fill-opacity="0.0" clip-path="url(#id_0)" d="M358.2092 266.1336C358.2092 267.79044 356.86603 269.1336 355.2092 269.1336C353.55234 269.1336 352.2092 267.79044 352.2092 266.1336C352.2092 264.47675 353.55234 263.1336 355.2092 263.1336C356.86603 263.1336 358.2092 264.47675 358.2092 266.1336Z" fill-rule="nonzero"/><path fill="#000000" fill-opacity="0.0" clip-path="url(#id_0)" d="M368.49286 267.2641C368.49286 268.92096 367.14972 270.2641 365.49286 270.2641C363.836 270.2641 362.49286 268.92096 362.49286 267.2641C362.49286 265.60724 363.836 264.2641 365.49286 264.2641C367.14972 264.2641 368.49286 265.60724 368.49286 267.2641Z" fill-rule="nonzero"/><path fill="#000000" fill-opacity="0.0" clip-path="url(#id_0)" d="M378.77652 268.32434C378.77652 269.98117 377.43338 271.32434 375.77652 271.32434C374.1197 271.32434 372.77652 269.98117 372.77652 268.32434C372.77652 266.66748 374.1197 265.32434 375.77652 265.32434C377.43338 265.32434 378.77652 266.66748 378.77652 268.32434Z" fill-rule="nonzero"/><path fill="#000000" fill-opacity="0.0" clip-path="url(#id_0)" d="M389.0602 269.32053C389.0602 270.9774 387.71707 272.32053 386.0602 272.32053C384.40335 272.32053 383.0602 270.9774 383.0602 269.32053C383.0602 267.6637 384.40335 266.32053 386.0602 266.32053C387.71707 266.32053 389.0602 267.6637 389.0602 269.32053Z" fill-rule="nonzero"/><path fill="#000000" fill-opacity="0.0" clip-path="url(#id_0)" d="M399.34387 270.25827C399.34387 271.91513 398.00073 273.25827 396.34387 273.25827C394.687 273.25827 393.34387 271.91513 393.34387 270.25827C393.34387 268.6014 394.687 267.25827 396.34387 267.25827C398.00073 267.25827 399.34387 268.6014 399.34387 270.25827Z" fill-rule="nonzero"/><path fill="#000000" fill-opacity="0.0" clip-path="url(#id_0)" d="M409.62756 271.14236C409.62756 272.79922 408.2844 274.14236 406.62756 274.14236C404.9707 274.14236 403.62756 272.79922 403.62756 271.14236C403.62756 269.4855 404.9707 268.14236 406.62756 268.14236C408.2844 268.14236 409.62756 269.4855 409.62756 271.14236Z" fill-rule="nonzero"/><path fill="#000000" fill-opacity="0.0" clip-path="url(#id_0)" d="M419.91122 271.97733C419.91122 273.6342 418.56808 274.97733 416.91122 274.97733C415.25436 274.97733 413.91122 273.6342 413.91122 271.97733C413.91122 270.32047 415.25436 268.97733 416.91122 268.97733C418.56808 268.97733 419.91122 270.32047 419.91122 271.97733Z" fill-rule="nonzero"/><path fill="#000000" fill-opacity="0.0" clip-path="url(#id_0)" d="M430.1949 272.76703C430.1949 274.42386 428.85175 275.76703 427.1949 275.76703C425.53806 275.76703 424.1949 274.42386 424.1949 272.76703C424.1949 271.11017 425.53806 269.76703 427.1949 269.76703C428.85175 269.76703 430.1949 271.11017 430.1949 272.76703Z" fill-rule="nonzero"/><path fill="#000000" fill-opacity="0.0" clip-path="url(#id_0)" d="M440.47858 273.51495C440.47858 275.1718 439.13544 276.51495 437.47858 276.51495C435.82172 276.51495 434.47858 275.1718 434.47858 273.51495C434.47858 271.8581 435.82172 270.51495 437.47858 270.51495C439.13544 270.51495 440.47858 271.8581 440.47858 273.51495Z" fill-rule="nonzero"/><path fill="#000000" fill-opacity="0.0" clip-path="url(#id_0)" d="M450.76224 274.2244C450.76224 275.88126 449.4191 277.2244 447.76224 277.2244C446.10538 277.2244 444.76224 275.88126 444.76224 274.2244C444.76224 272.56757 446.10538 271.2244 447.76224 271.2244C449.4191 271.2244 450.76224 272.56757 450.76224 274.2244Z" fill-rule="nonzero"/><path fill="#000000" fill-opacity="0.0" clip-path="url(#id_0)" d="M461.04593 274.89816C461.04593 276.55502 459.70276 277.89816 458.04593 277.89816C456.38907 277.89816 455.04593 276.55502 455.04593 274.89816C455.04593 273.2413 456.38907 271.89816 458.04593 271.89816C459.70276 271.89816 461.04593 273.2413 461.04593 274.89816Z" fill-rule="nonzero"/><path fill="#000000" fill-opacity="0.0" clip-path="url(#id_0)" d="M471.3296 275.53876C471.3296 277.19562 469.98645 278.53876 468.3296 278.53876C466.67273 278.53876 465.3296 277.19562 465.3296 275.53876C465.3296 273.88193 466.67273 272.53876 468.3296 272.53876C469.98645 272.53876 471.3296 273.88193 471.3296 275.53876Z" fill-rule="nonzero"/><path fill="#000000" fill-opacity="0.0" clip-path="url(#id_0)" d="M481.61325 276.1487C481.61325 277.80554 480.2701 279.1487 478.61325 279.1487C476.95642 279.1487 475.61325 277.80554 475.61325 276.1487C475.61325 274.49185 476.95642 273.1487 478.61325 273.1487C480.2701 273.1487 481.61325 274.49185 481.61325 276.1487Z" fill-rule="nonzero"/><path fill="#000000" fill-opacity="0.0" clip-path="url(#id_0)" d="M491.89694 276.73C491.89694 278.38687 490.5538 279.73 488.89694 279.73C487.24008 279.73 485.89694 278.38687 485.89694 276.73C485.89694 275.07315 487.24008 273.73 488.89694 273.73C490.5538 273.73 491.89694 275.07315 491.89694 276.73Z" fill-rule="nonzero"/><path fill="#000000" fill-opacity="0.0" clip-path="url(#id_0)" d="M502.1806 277.28464C502.1806 278.9415 500.83746 280.28464 499.1806 280.28464C497.52377 280.28464 496.1806 278.9415 496.1806 277.28464C496.1806 275.62778 497.52377 274.28464 499.1806 274.28464C500.83746 274.28464 502.1806 275.62778 502.1806 277.28464Z" fill-rule="nonzero"/><path fill="#000000" fill-opacity="0.0" clip-path="url(#id_0)" d="M512.4643 277.81433C512.4643 279.4712 511.12115 280.81433 509.4643 280.81433C507.80743 280.81433 506.4643 279.4712 506.4643 277.81433C506.4643 276.15747 507.80743 274.81433 509.4643 274.81433C511.12115 274.81433 512.4643 276.15747 512.4643 277.81433Z" fill-rule="nonzero"/><path fill="#000000" fill-opacity="0.0" clip-path="url(#id_0)" d="M522.748 278.3208C522.748 279.97763 521.4048 281.3208 519.748 281.3208C518.0911 281.3208 516.748 279.97763 516.748 278.3208C516.748 276.66394 518.0911 275.3208 519.748 275.3208C521.4048 275.3208 522.748 276.66394 522.748 278.3208Z" fill-rule="nonzero"/><path fill="#000000" fill-opacity="0.0" clip-path="url(#id_0)" d="M533.0316 278.80548C533.0316 280.46234 531.6885 281.80548 530.0316 281.80548C528.37476 281.80548 527.0316 280.46234 527.0316 278.80548C527.0316 277.14862 528.37476 275.80548 530.0316 275.80548C531.6885 275.80548 533.0316 277.14862 533.0316 278.80548Z" fill-rule="nonzero"/><path fill="#000000" fill-opacity="0.0" clip-path="url(#id_0)" d="M543.3153 279.26968C543.3153 280.9265 541.97217 282.26968 540.3153 282.26968C538.65845 282.26968 537.3153 280.9265 537.3153 279.26968C537.3153 277.61282 538.65845 276.26968 540.3153 276.26968C541.97217 276.26968 543.3153 277.61282 543.3153 279.26968Z" fill-rule="nonzero"/><path fill="#000000" fill-opacity="0.0" clip-path="url(#id_0)" d="M553.599 279.71472C553.599 281.37158 552.25586 282.71472 550.599 282.71472C548.94214 282.71472 547.599 281.37158 547.599 279.71472C547.599 278.05786 548.94214 276.71472 550.599 276.71472C552.25586 276.71472 553.599 278.05786 553.599 279.71472Z" fill-rule="nonzero"/><path fill="#000000" fill-opacity="0.0" clip-path="url(#id_0)" d="M563.8826 280.14175C563.8826 281.7986 562.5395 283.14175 560.8826 283.14175C559.22577 283.14175 557.8826 281.7986 557.8826 280.14175C557.8826 278.4849 559.22577 277.14175 560.8826 277.14175C562.5395 277.14175 563.8826 278.4849 563.8826 280.14175Z" fill-rule="nonzero"/><path fill="#000000" fill-opacity="0.0" clip-path="url(#id_0)" d="M574.1663 280.55185C574.1663 282.20868 572.8232 283.55185 571.1663 283.55185C569.50946 283.55185 568.1663 282.20868 568.1663 280.55185C568.1663 278.895 569.50946 277.55185 571.1663 277.55185C572.8232 277.55185 574.1663 278.895 574.1663 280.55185Z" fill-rule="nonzero"/><path fill="#000000" fill-opacity="0.0" clip-path="url(#id_0)" d="M584.45 280.9459C584.45 282.60275 583.1069 283.9459 581.45 283.9459C579.79315 283.9459 578.45 282.60275 578.45 280.9459C578.45 279.28903 579.79315 277.9459 581.45 277.9459C583.1069 277.9459 584.45 279.28903 584.45 280.9459Z" fill-rule="nonzero"/><path fill="#000000" d="M317.54688 347.45L318.64062 347.575Q318.39062 348.52814 317.6875 349.0594Q316.98438 349.59064 315.90625 349.59064Q314.54688 349.59064 313.73438 348.7469Q312.9375 347.90314 312.9375 346.3875Q312.9375 344.825 313.75 343.96564Q314.5625 343.09064 315.84375 343.09064Q317.09375 343.09064 317.875 343.9344Q318.67188 344.77814 318.67188 346.325Q318.67188 346.41876 318.67188 346.60626L314.03125 346.60626Q314.09375 347.6375 314.60938 348.1844Q315.125 348.71564 315.90625 348.71564Q316.48438 348.71564 316.89062 348.41876Q317.3125 348.10626 317.54688 347.45ZM314.09375 345.7469L317.5625 345.7469Q317.5 344.95 317.17188 344.5594Q316.65625 343.95 315.85938 343.95Q315.125 343.95 314.625 344.4344Q314.14062 344.91876 314.09375 345.7469ZM320.29688 351.84064L320.29688 343.23126L321.25 343.23126L321.25 344.02814Q321.59375 343.5594 322.01562 343.325Q322.45312 343.09064 323.0625 343.09064Q323.85938 343.09064 324.46875 343.4969Q325.07812 343.90314 325.375 344.65314Q325.6875 345.40314 325.6875 346.29376Q325.6875 347.2469 325.34375 348.0125Q325.01562 348.77814 324.35938 349.1844Q323.70312 349.59064 322.98438 349.59064Q322.45312 349.59064 322.03125 349.3719Q321.60938 349.1375 321.34375 348.8094L321.34375 351.84064L320.29688 351.84064ZM321.25 346.3719Q321.25 347.575 321.73438 348.15314Q322.21875 348.71564 322.90625 348.71564Q323.60938 348.71564 324.10938 348.1219Q324.60938 347.52814 324.60938 346.27814Q324.60938 345.09064 324.125 344.5125Q323.64062 343.91876 322.95312 343.91876Q322.28125 343.91876 321.76562 344.54376Q321.25 345.16876 321.25 346.3719ZM326.90625 346.34064Q326.90625 344.60626 327.85938 343.77814Q328.65625 343.09064 329.8125 343.09064Q331.09375 343.09064 331.90625 343.9344Q332.73438 344.7625 332.73438 346.2469Q332.73438 347.45 332.375 348.1375Q332.01562 348.825 331.3125 349.21564Q330.625 349.59064 329.8125 349.59064Q328.51562 349.59064 327.70312 348.7625Q326.90625 347.91876 326.90625 346.34064ZM327.98438 346.34064Q327.98438 347.52814 328.5 348.1219Q329.03125 348.71564 329.8125 348.71564Q330.60938 348.71564 331.125 348.1219Q331.64062 347.52814 331.64062 346.3094Q331.64062 345.15314 331.10938 344.5594Q330.59375 343.96564 329.8125 343.96564Q329.03125 343.96564 328.5 344.5594Q327.98438 345.1375 327.98438 346.34064ZM338.35938 347.16876L339.39062 347.3094Q339.21875 348.3719 338.51562 348.98126Q337.8125 349.59064 336.79688 349.59064Q335.51562 349.59064 334.73438 348.7625Q333.96875 347.91876 333.96875 346.35626Q333.96875 345.35626 334.29688 344.60626Q334.64062 343.84064 335.3125 343.46564Q336.0 343.09064 336.8125 343.09064Q337.8125 343.09064 338.45312 343.60626Q339.10938 344.10626 339.29688 345.0594L338.26562 345.21564Q338.125 344.59064 337.75 344.27814Q337.375 343.95 336.84375 343.95Q336.04688 343.95 335.54688 344.52814Q335.04688 345.09064 335.04688 346.325Q335.04688 347.59064 335.53125 348.15314Q336.01562 348.71564 336.78125 348.71564Q337.40625 348.71564 337.8125 348.34064Q338.23438 347.96564 338.35938 347.16876ZM340.29688 349.45L340.29688 340.85626L341.34375 340.85626L341.34375 343.9344Q342.07812 343.09064 343.20312 343.09064Q343.90625 343.09064 344.40625 343.3719Q344.92188 343.6375 345.14062 344.1219Q345.35938 344.59064 345.35938 345.5125L345.35938 349.45L344.3125 349.45L344.3125 345.5125Q344.3125 344.71564 343.96875 344.35626Q343.625 343.9969 343.0 343.9969Q342.53125 343.9969 342.10938 344.2469Q341.70312 344.48126 341.51562 344.90314Q341.34375 345.3094 341.34375 346.04376L341.34375 349.45L340.29688 349.45Z" fill-rule="nonzero"/><path fill="#000000" d="M27.112513 190.33958L26.971888 189.30833Q27.956263 189.27708 28.315638 188.94896Q28.675013 188.62083 28.675013 188.02708Q28.675013 187.60521 28.487513 187.29271Q28.284388 186.98021 27.956263 186.87083Q27.612513 186.74583 26.878138 186.74583L20.956263 186.74583L20.956263 185.62083L26.815638 185.62083Q27.893763 185.62083 28.487513 185.88646Q29.081263 186.13646 29.393763 186.69896Q29.690638 187.26146 29.690638 188.02708Q29.690638 189.15208 29.050013 189.76146Q28.393763 190.35521 27.112513 190.33958Z" fill-rule="nonzero"/><path fill="#000000" d="M55.05 300.21564Q55.05 298.6844 55.3625 297.7625Q55.675 296.825 56.284374 296.325Q56.909374 295.825 57.846874 295.825Q58.534374 295.825 59.05 296.10626Q59.58125 296.3875 59.925 296.91876Q60.26875 297.4344 60.45625 298.1844Q60.64375 298.9344 60.64375 300.21564Q60.64375 301.73126 60.33125 302.65314Q60.034374 303.575 59.409374 304.09064Q58.8 304.59064 57.846874 304.59064Q56.6125 304.59064 55.89375 303.7Q55.05 302.6375 55.05 300.21564ZM56.128124 300.21564Q56.128124 302.325 56.628124 303.02814Q57.128124 303.73126 57.846874 303.73126Q58.58125 303.73126 59.065624 303.02814Q59.565624 302.325 59.565624 300.21564Q59.565624 298.09064 59.065624 297.40314Q58.58125 296.7 57.83125 296.7Q57.1125 296.7 56.675 297.3094Q56.128124 298.09064 56.128124 300.21564ZM62.64375 304.45L62.64375 303.2469L63.846874 303.2469L63.846874 304.45L62.64375 304.45ZM65.05 300.21564Q65.05 298.6844 65.3625 297.7625Q65.675 296.825 66.28438 296.325Q66.90938 295.825 67.84688 295.825Q68.53438 295.825 69.05 296.10626Q69.58125 296.3875 69.925 296.91876Q70.26875 297.4344 70.45625 298.1844Q70.64375 298.9344 70.64375 300.21564Q70.64375 301.73126 70.33125 302.65314Q70.03438 303.575 69.40938 304.09064Q68.8 304.59064 67.84688 304.59064Q66.6125 304.59064 65.89375 303.7Q65.05 302.6375 65.05 300.21564ZM66.12813 300.21564Q66.12813 302.325 66.62813 303.02814Q67.12813 303.73126 67.84688 303.73126Q68.58125 303.73126 69.06563 303.02814Q69.56563 302.325 69.56563 300.21564Q69.56563 298.09064 69.06563 297.40314Q68.58125 296.7 67.83125 296.7Q67.1125 296.7 66.675 297.3094Q66.12813 298.09064 66.12813 300.21564Z" fill-rule="nonzero"/><path fill="#000000" d="M55.05 252.50897Q55.05 250.97772 55.3625 250.05585Q55.675 249.11835 56.284374 248.61835Q56.909374 248.11835 57.846874 248.11835Q58.534374 248.11835 59.05 248.3996Q59.58125 248.68085 59.925 249.2121Q60.26875 249.72772 60.45625 250.47772Q60.64375 251.22772 60.64375 252.50897Q60.64375 254.0246 60.33125 254.94647Q60.034374 255.86835 59.409374 256.38397Q58.8 256.88397 57.846874 256.88397Q56.6125 256.88397 55.89375 255.99335Q55.05 254.93085 55.05 252.50897ZM56.128124 252.50897Q56.128124 254.61835 56.628124 255.32147Q57.128124 256.0246 57.846874 256.0246Q58.58125 256.0246 59.065624 255.32147Q59.565624 254.61835 59.565624 252.50897Q59.565624 250.38397 59.065624 249.69647Q58.58125 248.99335 57.83125 248.99335Q57.1125 248.99335 56.675 249.60272Q56.128124 250.38397 56.128124 252.50897ZM62.64375 256.74335L62.64375 255.54022L63.846874 255.54022L63.846874 256.74335L62.64375 256.74335ZM69.01875 256.74335L67.97188 256.74335L67.97188 250.0246Q67.58125 250.38397 66.95625 250.75897Q66.34688 251.11835 65.8625 251.29022L65.8625 250.2746Q66.7375 249.85272 67.39375 249.2746Q68.06563 248.68085 68.34688 248.11835L69.01875 248.11835L69.01875 256.74335Z" fill-rule="nonzero"/><path fill="#000000" d="M55.05 204.80229Q55.05 203.27104 55.3625 202.34917Q55.675 201.41167 56.284374 200.91167Q56.909374 200.41167 57.846874 200.41167Q58.534374 200.41167 59.05 200.69292Q59.58125 200.97417 59.925 201.50542Q60.26875 202.02104 60.45625 202.77104Q60.64375 203.52104 60.64375 204.80229Q60.64375 206.31792 60.33125 207.23979Q60.034374 208.16167 59.409374 208.67729Q58.8 209.17729 57.846874 209.17729Q56.6125 209.17729 55.89375 208.28667Q55.05 207.22417 55.05 204.80229ZM56.128124 204.80229Q56.128124 206.91167 56.628124 207.61479Q57.128124 208.31792 57.846874 208.31792Q58.58125 208.31792 59.065624 207.61479Q59.565624 206.91167 59.565624 204.80229Q59.565624 202.67729 59.065624 201.98979Q58.58125 201.28667 57.83125 201.28667Q57.1125 201.28667 56.675 201.89604Q56.128124 202.67729 56.128124 204.80229ZM62.64375 209.03667L62.64375 207.83354L63.846874 207.83354L63.846874 209.03667L62.64375 209.03667ZM70.59688 208.02104L70.59688 209.03667L64.90938 209.03667Q64.90938 208.66167 65.03438 208.30229Q65.25313 207.72417 65.72188 207.16167Q66.20625 206.59917 67.1125 205.86479Q68.51875 204.70854 69.00313 204.03667Q69.50313 203.36479 69.50313 202.77104Q69.50313 202.14604 69.05 201.72417Q68.59688 201.28667 67.87813 201.28667Q67.1125 201.28667 66.65938 201.73979Q66.20625 202.19292 66.19063 203.00542L65.1125 202.89604Q65.22188 201.67729 65.94063 201.05229Q66.675 200.41167 67.90938 200.41167Q69.14375 200.41167 69.8625 201.09917Q70.58125 201.78667 70.58125 202.80229Q70.58125 203.31792 70.3625 203.81792Q70.15938 204.30229 69.65938 204.86479Q69.175 205.41167 68.05 206.36479Q67.09688 207.16167 66.81563 207.45854Q66.55 207.73979 66.37813 208.02104L70.59688 208.02104Z" fill-rule="nonzero"/><path fill="#000000" d="M55.05 157.09563Q55.05 155.56438 55.3625 154.6425Q55.675 153.705 56.284374 153.205Q56.909374 152.705 57.846874 152.705Q58.534374 152.705 59.05 152.98625Q59.58125 153.2675 59.925 153.79875Q60.26875 154.31438 60.45625 155.06438Q60.64375 155.81438 60.64375 157.09563Q60.64375 158.61125 60.33125 159.53313Q60.034374 160.455 59.409374 160.97063Q58.8 161.47063 57.846874 161.47063Q56.6125 161.47063 55.89375 160.58Q55.05 159.5175 55.05 157.09563ZM56.128124 157.09563Q56.128124 159.205 56.628124 159.90813Q57.128124 160.61125 57.846874 160.61125Q58.58125 160.61125 59.065624 159.90813Q59.565624 159.205 59.565624 157.09563Q59.565624 154.97063 59.065624 154.28313Q58.58125 153.58 57.83125 153.58Q57.1125 153.58 56.675 154.18938Q56.128124 154.97063 56.128124 157.09563ZM62.64375 161.33L62.64375 160.12688L63.846874 160.12688L63.846874 161.33L62.64375 161.33ZM65.05 159.06438L66.1125 158.92375Q66.28438 159.81438 66.72188 160.22063Q67.15938 160.61125 67.78438 160.61125Q68.53438 160.61125 69.05 160.09563Q69.56563 159.58 69.56563 158.81438Q69.56563 158.09563 69.08125 157.62688Q68.6125 157.1425 67.87813 157.1425Q67.58125 157.1425 67.12813 157.2675L67.25313 156.33Q67.3625 156.34563 67.425 156.34563Q68.09688 156.34563 68.62813 156.00188Q69.175 155.6425 69.175 154.90813Q69.175 154.33 68.78438 153.955Q68.39375 153.56438 67.76875 153.56438Q67.15938 153.56438 66.7375 153.955Q66.33125 154.34563 66.22188 155.11125L65.15938 154.92375Q65.34688 153.87688 66.03438 153.29875Q66.72188 152.705 67.7375 152.705Q68.44063 152.705 69.03438 153.0175Q69.62813 153.31438 69.94063 153.83Q70.25313 154.34563 70.25313 154.93938Q70.25313 155.48625 69.95625 155.955Q69.65938 156.40813 69.08125 156.67375Q69.83125 156.84563 70.25313 157.40813Q70.675 157.955 70.675 158.79875Q70.675 159.92375 69.84688 160.705Q69.03438 161.48625 67.78438 161.48625Q66.65938 161.48625 65.90938 160.81438Q65.15938 160.12688 65.05 159.06438Z" fill-rule="nonzero"/><path fill="#000000" d="M55.05 109.38896Q55.05 107.85771 55.3625 106.93584Q55.675 105.99834 56.284374 105.49834Q56.909374 104.99834 57.846874 104.99834Q58.534374 104.99834 59.05 105.27959Q59.58125 105.56084 59.925 106.09209Q60.26875 106.60771 60.45625 107.35771Q60.64375 108.10771 60.64375 109.38896Q60.64375 110.90459 60.33125 111.82646Q60.034374 112.74834 59.409374 113.26396Q58.8 113.76396 57.846874 113.76396Q56.6125 113.76396 55.89375 112.87334Q55.05 111.81084 55.05 109.38896ZM56.128124 109.38896Q56.128124 111.49834 56.628124 112.20146Q57.128124 112.90459 57.846874 112.90459Q58.58125 112.90459 59.065624 112.20146Q59.565624 111.49834 59.565624 109.38896Q59.565624 107.26396 59.065624 106.57646Q58.58125 105.87334 57.83125 105.87334Q57.1125 105.87334 56.675 106.48271Q56.128124 107.26396 56.128124 109.38896ZM62.64375 113.62334L62.64375 112.42021L63.846874 112.42021L63.846874 113.62334L62.64375 113.62334ZM68.425 113.62334L68.425 111.56084L64.70625 111.56084L64.70625 110.59209L68.62813 105.02959L69.4875 105.02959L69.4875 110.59209L70.64375 110.59209L70.64375 111.56084L69.4875 111.56084L69.4875 113.62334L68.425 113.62334ZM68.425 110.59209L68.425 106.73271L65.7375 110.59209L68.425 110.59209Z" fill-rule="nonzero"/><path fill="#000000" d="M55.05 61.68229Q55.05 60.15104 55.3625 59.229164Q55.675 58.291664 56.284374 57.791664Q56.909374 57.291664 57.846874 57.291664Q58.534374 57.291664 59.05 57.572914Q59.58125 57.854164 59.925 58.385414Q60.26875 58.90104 60.45625 59.65104Q60.64375 60.40104 60.64375 61.68229Q60.64375 63.197914 60.33125 64.11979Q60.034374 65.041664 59.409374 65.55729Q58.8 66.05729 57.846874 66.05729Q56.6125 66.05729 55.89375 65.166664Q55.05 64.104164 55.05 61.68229ZM56.128124 61.68229Q56.128124 63.791664 56.628124 64.49479Q57.128124 65.197914 57.846874 65.197914Q58.58125 65.197914 59.065624 64.49479Q59.565624 63.791664 59.565624 61.68229Q59.565624 59.55729 59.065624 58.86979Q58.58125 58.166664 57.83125 58.166664Q57.1125 58.166664 56.675 58.77604Q56.128124 59.55729 56.128124 61.68229ZM62.64375 65.916664L62.64375 64.71354L63.846874 64.71354L63.846874 65.916664L62.64375 65.916664ZM65.05 63.666664L66.15938 63.572914Q66.28438 64.385414 66.72188 64.791664Q67.175 65.197914 67.81563 65.197914Q68.56563 65.197914 69.09688 64.61979Q69.62813 64.041664 69.62813 63.104164Q69.62813 62.197914 69.1125 61.68229Q68.6125 61.15104 67.78438 61.15104Q67.28438 61.15104 66.8625 61.385414Q66.45625 61.61979 66.22188 61.979164L65.2375 61.854164L66.06563 57.447914L70.34688 57.447914L70.34688 58.447914L66.90938 58.447914L66.45625 60.760414Q67.22188 60.21354 68.06563 60.21354Q69.19063 60.21354 69.95625 60.99479Q70.7375 61.77604 70.7375 63.010414Q70.7375 64.166664 70.06563 65.02604Q69.2375 66.05729 67.81563 66.05729Q66.64375 66.05729 65.89375 65.40104Q65.15938 64.74479 65.05 63.666664Z" fill-rule="nonzero"/><path fill="#000000" d="M167.57181 317.45L166.52493 317.45L166.52493 310.73126Q166.13431 311.09064 165.50931 311.46564Q164.89993 311.825 164.41556 311.9969L164.41556 310.98126Q165.29056 310.5594 165.94681 309.98126Q166.61868 309.3875 166.89993 308.825L167.57181 308.825L167.57181 317.45ZM170.60306 313.21564Q170.60306 311.6844 170.91556 310.7625Q171.22806 309.825 171.83743 309.325Q172.46243 308.825 173.39993 308.825Q174.08743 308.825 174.60306 309.10626Q175.13431 309.3875 175.47806 309.91876Q175.82181 310.4344 176.00931 311.1844Q176.19681 311.9344 176.19681 313.21564Q176.19681 314.73126 175.88431 315.65314Q175.58743 316.575 174.96243 317.09064Q174.35306 317.59064 173.39993 317.59064Q172.16556 317.59064 171.44681 316.7Q170.60306 315.6375 170.60306 313.21564ZM171.68118 313.21564Q171.68118 315.325 172.18118 316.02814Q172.68118 316.73126 173.39993 316.73126Q174.13431 316.73126 174.61868 316.02814Q175.11868 315.325 175.11868 313.21564Q175.11868 311.09064 174.61868 310.40314Q174.13431 309.7 173.38431 309.7Q172.66556 309.7 172.22806 310.3094Q171.68118 311.09064 171.68118 313.21564Z" fill-rule="nonzero"/><path fill="#000000" d="M271.98666 316.4344L271.98666 317.45L266.29916 317.45Q266.29916 317.075 266.42416 316.71564Q266.6429 316.1375 267.11166 315.575Q267.59604 315.0125 268.5023 314.27814Q269.90854 313.1219 270.3929 312.45Q270.8929 311.77814 270.8929 311.1844Q270.8929 310.5594 270.4398 310.1375Q269.98666 309.7 269.2679 309.7Q268.5023 309.7 268.04916 310.15314Q267.59604 310.60626 267.5804 311.41876L266.5023 311.3094Q266.61166 310.09064 267.3304 309.46564Q268.0648 308.825 269.29916 308.825Q270.53354 308.825 271.2523 309.5125Q271.97104 310.2 271.97104 311.21564Q271.97104 311.73126 271.7523 312.23126Q271.54916 312.71564 271.04916 313.27814Q270.5648 313.825 269.4398 314.77814Q268.48666 315.575 268.2054 315.8719Q267.9398 316.15314 267.7679 316.4344L271.98666 316.4344ZM273.4398 313.21564Q273.4398 311.6844 273.7523 310.7625Q274.0648 309.825 274.67416 309.325Q275.29916 308.825 276.23666 308.825Q276.92416 308.825 277.4398 309.10626Q277.97104 309.3875 278.3148 309.91876Q278.65854 310.4344 278.84604 311.1844Q279.03354 311.9344 279.03354 313.21564Q279.03354 314.73126 278.72104 315.65314Q278.42416 316.575 277.79916 317.09064Q277.1898 317.59064 276.23666 317.59064Q275.0023 317.59064 274.28354 316.7Q273.4398 315.6375 273.4398 313.21564ZM274.5179 313.21564Q274.5179 315.325 275.0179 316.02814Q275.5179 316.73126 276.23666 316.73126Q276.97104 316.73126 277.4554 316.02814Q277.9554 315.325 277.9554 313.21564Q277.9554 311.09064 277.4554 310.40314Q276.97104 309.7 276.22104 309.7Q275.5023 309.7 275.0648 310.3094Q274.5179 311.09064 274.5179 313.21564Z" fill-rule="nonzero"/><path fill="#000000" d="M369.27652 315.1844L370.33902 315.04376Q370.5109 315.9344 370.9484 316.34064Q371.3859 316.73126 372.0109 316.73126Q372.7609 316.73126 373.27652 316.21564Q373.79214 315.7 373.79214 314.9344Q373.79214 314.21564 373.30777 313.7469Q372.83902 313.2625 372.10464 313.2625Q371.80777 313.2625 371.35464 313.3875L371.47964 312.45Q371.58902 312.46564 371.65152 312.46564Q372.3234 312.46564 372.85464 312.1219Q373.40152 311.7625 373.40152 311.02814Q373.40152 310.45 373.0109 310.075Q372.62027 309.6844 371.99527 309.6844Q371.3859 309.6844 370.96402 310.075Q370.55777 310.46564 370.4484 311.23126L369.3859 311.04376Q369.5734 309.9969 370.2609 309.41876Q370.9484 308.825 371.96402 308.825Q372.66714 308.825 373.2609 309.1375Q373.85464 309.4344 374.16714 309.95Q374.47964 310.46564 374.47964 311.0594Q374.47964 311.60626 374.18277 312.075Q373.8859 312.52814 373.30777 312.79376Q374.05777 312.96564 374.47964 313.52814Q374.90152 314.075 374.90152 314.91876Q374.90152 316.04376 374.0734 316.825Q373.2609 317.60626 372.0109 317.60626Q370.8859 317.60626 370.1359 316.9344Q369.3859 316.2469 369.27652 315.1844ZM376.27652 313.21564Q376.27652 311.6844 376.58902 310.7625Q376.90152 309.825 377.5109 309.325Q378.1359 308.825 379.0734 308.825Q379.7609 308.825 380.27652 309.10626Q380.80777 309.3875 381.15152 309.91876Q381.49527 310.4344 381.68277 311.1844Q381.87027 311.9344 381.87027 313.21564Q381.87027 314.73126 381.55777 315.65314Q381.2609 316.575 380.6359 317.09064Q380.02652 317.59064 379.0734 317.59064Q377.83902 317.59064 377.12027 316.7Q376.27652 315.6375 376.27652 313.21564ZM377.35464 313.21564Q377.35464 315.325 377.85464 316.02814Q378.35464 316.73126 379.0734 316.73126Q379.80777 316.73126 380.29214 316.02814Q380.79214 315.325 380.79214 313.21564Q380.79214 311.09064 380.29214 310.40314Q379.80777 309.7 379.05777 309.7Q378.33902 309.7 377.90152 310.3094Q377.35464 311.09064 377.35464 313.21564Z" fill-rule="nonzero"/><path fill="#000000" d="M475.48825 317.45L475.48825 315.3875L471.7695 315.3875L471.7695 314.41876L475.69138 308.85626L476.55075 308.85626L476.55075 314.41876L477.707 314.41876L477.707 315.3875L476.55075 315.3875L476.55075 317.45L475.48825 317.45ZM475.48825 314.41876L475.48825 310.5594L472.80075 314.41876L475.48825 314.41876ZM479.11325 313.21564Q479.11325 311.6844 479.42575 310.7625Q479.73825 309.825 480.34763 309.325Q480.97263 308.825 481.91013 308.825Q482.59763 308.825 483.11325 309.10626Q483.6445 309.3875 483.98825 309.91876Q484.332 310.4344 484.5195 311.1844Q484.707 311.9344 484.707 313.21564Q484.707 314.73126 484.3945 315.65314Q484.09763 316.575 483.47263 317.09064Q482.86325 317.59064 481.91013 317.59064Q480.67575 317.59064 479.957 316.7Q479.11325 315.6375 479.11325 313.21564ZM480.19138 313.21564Q480.19138 315.325 480.69138 316.02814Q481.19138 316.73126 481.91013 316.73126Q482.6445 316.73126 483.12888 316.02814Q483.62888 315.325 483.62888 313.21564Q483.62888 311.09064 483.12888 310.40314Q482.6445 309.7 481.8945 309.7Q481.17575 309.7 480.73825 310.3094Q480.19138 311.09064 480.19138 313.21564Z" fill-rule="nonzero"/><path fill="#000000" d="M574.95 315.2L576.0594 315.10626Q576.1844 315.91876 576.6219 316.325Q577.075 316.73126 577.71564 316.73126Q578.46564 316.73126 578.9969 316.15314Q579.52814 315.575 579.52814 314.6375Q579.52814 313.73126 579.0125 313.21564Q578.5125 312.6844 577.6844 312.6844Q577.1844 312.6844 576.7625 312.91876Q576.35626 313.15314 576.1219 313.5125L575.1375 313.3875L575.96564 308.98126L580.2469 308.98126L580.2469 309.98126L576.8094 309.98126L576.35626 312.29376Q577.1219 311.7469 577.96564 311.7469Q579.09064 311.7469 579.85626 312.52814Q580.6375 313.3094 580.6375 314.54376Q580.6375 315.7 579.96564 316.5594Q579.1375 317.59064 577.71564 317.59064Q576.54376 317.59064 575.79376 316.9344Q575.0594 316.27814 574.95 315.2ZM581.95 313.21564Q581.95 311.6844 582.2625 310.7625Q582.575 309.825 583.1844 309.325Q583.8094 308.825 584.7469 308.825Q585.4344 308.825 585.95 309.10626Q586.48126 309.3875 586.825 309.91876Q587.16876 310.4344 587.35626 311.1844Q587.54376 311.9344 587.54376 313.21564Q587.54376 314.73126 587.23126 315.65314Q586.9344 316.575 586.3094 317.09064Q585.7 317.59064 584.7469 317.59064Q583.5125 317.59064 582.79376 316.7Q581.95 315.6375 581.95 313.21564ZM583.02814 313.21564Q583.02814 315.325 583.52814 316.02814Q584.02814 316.73126 584.7469 316.73126Q585.48126 316.73126 585.96564 316.02814Q586.46564 315.325 586.46564 313.21564Q586.46564 311.09064 585.96564 310.40314Q585.48126 309.7 584.73126 309.7Q584.0125 309.7 583.575 310.3094Q583.02814 311.09064 583.02814 313.21564Z" fill-rule="nonzero"/><path fill="#757575" d="M19.128124 33.4875L20.83125 33.253124Q20.909374 34.89375 21.45625 35.503124Q22.003124 36.096874 22.971874 36.096874Q23.675 36.096874 24.190624 35.784374Q24.70625 35.45625 24.89375 34.89375Q25.096874 34.33125 25.096874 33.096874L25.096874 23.2375L27.003124 23.2375L27.003124 32.9875Q27.003124 34.784374 26.565624 35.76875Q26.128124 36.753124 25.175 37.284374Q24.2375 37.8 22.971874 37.8Q21.096874 37.8 20.08125 36.721874Q19.08125 35.628124 19.128124 33.4875ZM38.753124 37.55L34.8 27.175L36.659374 27.175L38.89375 33.39375Q39.253124 34.39375 39.55 35.471874Q39.784374 34.659374 40.20625 33.503124L42.503124 27.175L44.315624 27.175L40.39375 37.55L38.753124 37.55ZM44.159374 34.45625L45.909374 34.175Q46.05 35.221874 46.721874 35.784374Q47.39375 36.33125 48.596874 36.33125Q49.8 36.33125 50.378124 35.846874Q50.971874 35.346874 50.971874 34.690624Q50.971874 34.096874 50.45625 33.753124Q50.096874 33.51875 48.659374 33.159374Q46.721874 32.659374 45.971874 32.315624Q45.2375 31.95625 44.846874 31.33125Q44.45625 30.690624 44.45625 29.925Q44.45625 29.2375 44.76875 28.64375Q45.096874 28.05 45.64375 27.659374Q46.05 27.3625 46.753124 27.159374Q47.471874 26.940624 48.284374 26.940624Q49.503124 26.940624 50.425 27.3Q51.346874 27.64375 51.784374 28.253124Q52.221874 28.846874 52.39375 29.846874L50.675 30.08125Q50.55 29.284374 49.9875 28.846874Q49.425 28.39375 48.409374 28.39375Q47.190624 28.39375 46.675 28.8Q46.159374 29.190624 46.159374 29.721874Q46.159374 30.065624 46.378124 30.346874Q46.58125 30.628124 47.05 30.815624Q47.315624 30.909374 48.596874 31.253124Q50.471874 31.753124 51.20625 32.08125Q51.940624 32.39375 52.3625 33.003124Q52.784374 33.596874 52.784374 34.503124Q52.784374 35.378124 52.26875 36.159374Q51.753124 36.940624 50.784374 37.3625Q49.815624 37.784374 48.596874 37.784374Q46.58125 37.784374 45.51875 36.940624Q44.45625 36.096874 44.159374 34.45625ZM55.3625 37.55L55.3625 35.55L57.3625 35.55L57.3625 37.55L55.3625 37.55ZM73.97188 34.20625L75.78438 34.440624Q75.3625 36.01875 74.19063 36.909374Q73.03438 37.784374 71.22188 37.784374Q68.95625 37.784374 67.6125 36.39375Q66.28438 34.9875 66.28438 32.45625Q66.28438 29.83125 67.62813 28.39375Q68.97188 26.940624 71.12813 26.940624Q73.20625 26.940624 74.51875 28.3625Q75.84688 29.76875 75.84688 32.346874Q75.84688 32.503124 75.83125 32.815624L68.09688 32.815624Q68.19063 34.51875 69.06563 35.425Q69.94063 36.33125 71.2375 36.33125Q72.20625 36.33125 72.87813 35.83125Q73.56563 35.315624 73.97188 34.20625ZM68.19063 31.3625L73.9875 31.3625Q73.87813 30.065624 73.33125 29.409374Q72.4875 28.39375 71.14375 28.39375Q69.94063 28.39375 69.1125 29.20625Q68.28438 30.003124 68.19063 31.3625ZM77.8625 41.51875L77.8625 27.175L79.47188 27.175L79.47188 28.51875Q80.03438 27.7375 80.7375 27.346874Q81.45625 26.940624 82.47188 26.940624Q83.8 26.940624 84.81563 27.628124Q85.83125 28.315624 86.34688 29.565624Q86.87813 30.8 86.87813 32.284374Q86.87813 33.878124 86.3 35.159374Q85.7375 36.425 84.64375 37.1125Q83.55 37.784374 82.34688 37.784374Q81.47188 37.784374 80.76875 37.409374Q80.08125 37.034374 79.62813 36.471874L79.62813 41.51875L77.8625 41.51875ZM79.45625 32.425Q79.45625 34.425 80.26875 35.378124Q81.08125 36.33125 82.2375 36.33125Q83.40938 36.33125 84.2375 35.346874Q85.08125 34.3625 85.08125 32.26875Q85.08125 30.3 84.25313 29.315624Q83.44063 28.315624 82.31563 28.315624Q81.19063 28.315624 80.31563 29.378124Q79.45625 30.425 79.45625 32.425ZM88.22188 32.3625Q88.22188 29.4875 89.81563 28.096874Q91.15938 26.940624 93.08125 26.940624Q95.22188 26.940624 96.56563 28.346874Q97.925 29.753124 97.925 32.221874Q97.925 34.221874 97.33125 35.378124Q96.7375 36.51875 95.58125 37.159374Q94.44063 37.784374 93.08125 37.784374Q90.89375 37.784374 89.55 36.39375Q88.22188 34.9875 88.22188 32.3625ZM90.01875 32.3625Q90.01875 34.3625 90.87813 35.346874Q91.75313 36.33125 93.08125 36.33125Q94.39375 36.33125 95.25313 35.346874Q96.12813 34.346874 96.12813 32.3Q96.12813 30.378124 95.25313 29.39375Q94.37813 28.39375 93.08125 28.39375Q91.75313 28.39375 90.87813 29.39375Q90.01875 30.378124 90.01875 32.3625ZM106.64375 33.753124L108.3625 33.971874Q108.08125 35.76875 106.90938 36.784374Q105.75313 37.784374 104.05 37.784374Q101.925 37.784374 100.62813 36.39375Q99.33125 35.003124 99.33125 32.409374Q99.33125 30.721874 99.87813 29.471874Q100.44063 28.20625 101.58125 27.58125Q102.72188 26.940624 104.06563 26.940624Q105.75313 26.940624 106.81563 27.8Q107.89375 28.659374 108.20625 30.221874L106.4875 30.4875Q106.25313 29.440624 105.62813 28.925Q105.00313 28.39375 104.12813 28.39375Q102.8 28.39375 101.97188 29.346874Q101.14375 30.3 101.14375 32.346874Q101.14375 34.440624 101.94063 35.39375Q102.7375 36.33125 104.03438 36.33125Q105.06563 36.33125 105.75313 35.70625Q106.45625 35.065624 106.64375 33.753124ZM109.8625 37.55L109.8625 23.2375L111.62813 23.2375L111.62813 28.3625Q112.8625 26.940624 114.7375 26.940624Q115.87813 26.940624 116.72188 27.39375Q117.58125 27.846874 117.94063 28.659374Q118.31563 29.45625 118.31563 30.971874L118.31563 37.55L116.56563 37.55L116.56563 30.971874Q116.56563 29.659374 115.9875 29.065624Q115.40938 28.45625 114.37813 28.45625Q113.59688 28.45625 112.89375 28.8625Q112.20625 29.26875 111.90938 29.971874Q111.62813 30.659374 111.62813 31.878124L111.62813 37.55L109.8625 37.55Z" fill-rule="nonzero"/></svg>